<?xml version="1.0" encoding="UTF-8"?>
<svg width="1158px" height="159px" viewBox="0 0 1158 159" version="1.1" xmlns="http://www.w3.org/2000/svg" xmlns:xlink="http://www.w3.org/1999/xlink">
    <!-- Generator: Sketch 42 (36781) - http://www.bohemiancoding.com/sketch -->
    <title>Pizza logo</title>
    <desc>Created with Sketch.</desc>
    <defs></defs>
    <g id="Page-1" stroke="none" stroke-width="1" fill="none" fill-rule="evenodd">
        <g id="Desktop-HD" transform="translate(-18.000000, -22.000000)">
            <g id="Pizza-logo" transform="translate(18.000000, 22.000000)">
                <g id="Pizza" transform="translate(109.000000, 54.000000)">
                    <ellipse id="Oval" stroke="#896314" stroke-width="5" fill="#F4ED7D" cx="53" cy="51" rx="53" ry="51"></ellipse>
                    <path d="M53.3732394,1.83453237 L53.3732394,100.165468" id="line-4" stroke="#EC2B2B" stroke-linecap="square"></path>
                    <path d="M92.1901408,19.4460432 L16.0492958,81.8201439" id="line-3" stroke="#EC2B2B" stroke-linecap="square"></path>
                    <path d="M21.2746479,13.5755396 L85.471831,88.4244604" id="line-2" stroke="#EC2B2B" stroke-linecap="square"></path>
                    <path d="M102.843836,51.3669065 L1.86619718,51.3669065" id="line-1" stroke="#EC2B2B" stroke-linecap="square"></path>
                </g>
                <path d="M76.2,33.8 C69.933302,24.599954 60.80006,20 48.8,20 C45.066648,20 41.400018,20.499995 37.8,21.5 C34.199982,22.500005 30.966681,24.033323 28.1,26.1 C25.233319,28.166677 22.933342,30.833317 21.2,34.1 C19.466658,37.366683 18.6,41.199978 18.6,45.6 C18.6,52.000032 20.399982,56.966649 24,60.5 C27.600018,64.033351 32.06664,66.933322 37.4,69.2 C42.73336,71.466678 48.566635,73.499991 54.9,75.3 C61.233365,77.100009 67.06664,79.499985 72.4,82.5 C77.73336,85.500015 82.199982,89.466642 85.8,94.4 C89.400018,99.333358 91.2,106.066624 91.2,114.6 C91.2,121.000032 89.833347,126.766641 87.1,131.9 C84.366653,137.033359 80.766689,141.333316 76.3,144.8 C71.833311,148.266684 66.833361,150.933324 61.3,152.8 C55.766639,154.666676 50.200028,155.6 44.6,155.6 C35.93329,155.6 27.700039,153.966683 19.9,150.7 C12.099961,147.433317 5.466694,142.066704 0,134.6 L13,125.2 C16.066682,130.400026 20.333306,134.566651 25.8,137.7 C31.266694,140.833349 37.733296,142.4 45.2,142.4 C48.800018,142.4 52.399982,141.833339 56,140.7 C59.600018,139.566661 62.833319,137.900011 65.7,135.7 C68.566681,133.499989 70.933324,130.800016 72.8,127.6 C74.666676,124.399984 75.6,120.733354 75.6,116.6 C75.6,111.666642 74.566677,107.566683 72.5,104.3 C70.433323,101.033317 67.700017,98.300011 64.3,96.1 C60.899983,93.899989 57.033355,92.066674 52.7,90.6 C48.366645,89.133326 43.900023,87.666674 39.3,86.2 C34.699977,84.733326 30.233355,83.066676 25.9,81.2 C21.566645,79.333324 17.700017,76.966681 14.3,74.1 C10.899983,71.233319 8.166677,67.633355 6.1,63.3 C4.033323,58.966645 3,53.533366 3,47 C3,40.199966 4.299987,34.266692 6.9,29.2 C9.500013,24.133308 12.966645,19.93335 17.3,16.6 C21.633355,13.26665 26.533306,10.800008 32,9.2 C37.466694,7.599992 43.066638,6.8 48.8,6.8 C56.80004,6.8 64.066634,8.066654 70.6,10.6 C77.133366,13.133346 83.199972,17.599968 88.8,24 L76.2,33.8 Z M250.4,152 L237.2,152 L237.2,0.8 L250.4,0.8 L250.4,152 Z M355,98 C355,89.066622 352.33336,81.833361 347,76.3 C341.66664,70.766639 334.200048,68 324.6,68 C320.333312,68 316.20002,68.833325 312.2,70.5 C308.19998,72.166675 304.700015,74.399986 301.7,77.2 C298.699985,80.000014 296.300009,83.199982 294.5,86.8 C292.699991,90.400018 291.8,94.133314 291.8,98 L355,98 Z M291.4,108.8 C291.800002,113.46669 292.933324,117.866646 294.8,122 C296.666676,126.133354 299.133318,129.699985 302.2,132.7 C305.266682,135.700015 308.79998,138.066658 312.8,139.8 C316.80002,141.533342 321.13331,142.4 325.8,142.4 C332.866702,142.4 338.966641,140.766683 344.1,137.5 C349.233359,134.233317 353.13332,130.466688 355.8,126.2 L366,134.6 C360.399972,141.666702 354.233367,146.733318 347.5,149.8 C340.766633,152.866682 333.533372,154.4 325.8,154.4 C318.866632,154.4 312.433363,153.166679 306.5,150.7 C300.566637,148.233321 295.466688,144.800022 291.2,140.4 C286.933312,135.999978 283.566679,130.80003 281.1,124.8 C278.633321,118.79997 277.4,112.266702 277.4,105.2 C277.4,98.133298 278.599988,91.60003 281,85.6 C283.400012,79.59997 286.733312,74.400022 291,70 C295.266688,65.599978 300.266638,62.166679 306,59.7 C311.733362,57.233321 317.9333,56 324.6,56 C331.666702,56 337.999972,57.266654 343.6,59.8 C349.200028,62.333346 353.899981,65.699979 357.7,69.9 C361.500019,74.100021 364.39999,79.033305 366.4,84.7 C368.40001,90.366695 369.4,96.399968 369.4,102.8 L369.4,108.8 L291.4,108.8 Z M406,58.4 C406.266668,60.933346 406.433333,63.433321 406.5,65.9 C406.566667,68.366679 406.6,70.866654 406.6,73.4 L407,73.4 C408.466674,70.866654 410.333322,68.533344 412.6,66.4 C414.866678,64.266656 417.399986,62.433341 420.2,60.9 C423.000014,59.366659 425.966651,58.166671 429.1,57.3 C432.233349,56.433329 435.333318,56 438.4,56 C450.40006,56 459.266638,59.166635 465,65.5 C470.733362,71.833365 473.6,80.866608 473.6,92.6 L473.6,152 L460.4,152 L460.4,100.2 C460.4,89.799948 458.600018,81.833361 455,76.3 C451.399982,70.766639 444.733382,68 435,68 C434.33333,68 432.466682,68.266664 429.4,68.8 C426.333318,69.333336 423.100017,70.799988 419.7,73.2 C416.299983,75.600012 413.26668,79.199976 410.6,84 C407.93332,88.800024 406.6,95.466624 406.6,104 L406.6,152 L393.4,152 L393.4,79 C393.4,76.466654 393.300001,73.266686 393.1,69.4 C392.899999,65.533314 392.666668,61.866684 392.4,58.4 L406,58.4 Z M553,70.4 L526,70.4 L526,125.6 C526,129.066684 526.33333,131.899989 527,134.1 C527.66667,136.300011 528.599994,137.999994 529.8,139.2 C531.000006,140.400006 532.433325,141.233331 534.1,141.7 C535.766675,142.166669 537.59999,142.4 539.6,142.4 C541.866678,142.4 544.199988,142.06667 546.6,141.4 C549.000012,140.73333 551.19999,139.866672 553.2,138.8 L553.8,151 C548.866642,153.266678 542.933368,154.4 536,154.4 C533.466654,154.4 530.833347,154.06667 528.1,153.4 C525.366653,152.73333 522.866678,151.466676 520.6,149.6 C518.333322,147.733324 516.466674,145.200016 515,142 C513.533326,138.799984 512.8,134.600026 512.8,129.4 L512.8,70.4 L493,70.4 L493,58.4 L512.8,58.4 L512.8,32 L526,32 L526,58.4 L553,58.4 L553,70.4 Z M645.8,73 L669,73 C675.400032,73 680.833311,72.33334 685.3,71 C689.766689,69.66666 693.33332,67.900011 696,65.7 C698.66668,63.499989 700.599994,60.900015 701.8,57.9 C703.000006,54.899985 703.6,51.666684 703.6,48.2 C703.6,44.86665 703.000006,41.700015 701.8,38.7 C700.599994,35.699985 698.66668,33.066678 696,30.8 C693.33332,28.533322 689.766689,26.766673 685.3,25.5 C680.833311,24.233327 675.400032,23.6 669,23.6 L645.8,23.6 L645.8,73 Z M631.4,10.4 L672.6,10.4 C687.000072,10.4 698.366625,13.533302 706.7,19.8 C715.033375,26.066698 719.2,35.53327 719.2,48.2 C719.2,60.86673 715.033375,70.366635 706.7,76.7 C698.366625,83.033365 687.000072,86.2 672.6,86.2 L645.8,86.2 L645.8,152 L631.4,152 L631.4,10.4 Z M760.6,22.4 C760.6,25.200014 759.60001,27.499991 757.6,29.3 C755.59999,31.100009 753.400012,32 751,32 C748.599988,32 746.40001,31.100009 744.4,29.3 C742.39999,27.499991 741.4,25.200014 741.4,22.4 C741.4,19.599986 742.39999,17.300009 744.4,15.5 C746.40001,13.699991 748.599988,12.8 751,12.8 C753.400012,12.8 755.59999,13.699991 757.6,15.5 C759.60001,17.300009 760.6,19.599986 760.6,22.4 Z M757.6,152 L744.4,152 L744.4,58.4 L757.6,58.4 L757.6,152 Z M853.6,68 L798.8,140 L855.6,140 L855.6,152 L779.6,152 L779.6,142.4 L834.4,70.4 L782.4,70.4 L782.4,58.4 L853.6,58.4 L853.6,68 Z M938.8,68 L884,140 L940.8,140 L940.8,152 L864.8,152 L864.8,142.4 L919.6,70.4 L867.6,70.4 L867.6,58.4 L938.8,58.4 L938.8,68 Z M1013,105.4 C1009.66665,105.4 1005.50003,105.566665 1000.5,105.9 C995.499975,106.233335 990.700023,107.033327 986.1,108.3 C981.499977,109.566673 977.566683,111.53332 974.3,114.2 C971.033317,116.86668 969.4,120.53331 969.4,125.2 C969.4,128.266682 970.033327,130.899989 971.3,133.1 C972.566673,135.300011 974.266656,137.099993 976.4,138.5 C978.533344,139.900007 980.899987,140.899997 983.5,141.5 C986.100013,142.100003 988.73332,142.4 991.4,142.4 C996.200024,142.4 1000.36665,141.600008 1003.9,140 C1007.43335,138.399992 1010.39999,136.233347 1012.8,133.5 C1015.20001,130.766653 1016.96666,127.566685 1018.1,123.9 C1019.23334,120.233315 1019.8,116.333354 1019.8,112.2 L1019.8,105.4 L1013,105.4 Z M1019.8,94.6 L1019.8,92.2 C1019.8,76.066586 1011.80008,68 995.8,68 C984.866612,68 975.333374,71.66663 967.2,79 L959.2,69.6 C968.000044,60.533288 981.199912,56 998.8,56 C1003.33336,56 1007.69998,56.66666 1011.9,58 C1016.10002,59.33334 1019.73332,61.366653 1022.8,64.1 C1025.86668,66.833347 1028.33332,70.266646 1030.2,74.4 C1032.06668,78.533354 1033,83.466638 1033,89.2 L1033,131 C1033,134.600018 1033.16666,138.366647 1033.5,142.3 C1033.83334,146.233353 1034.2,149.466654 1034.6,152 L1021.8,152 C1021.4,149.733322 1021.1,147.26668 1020.9,144.6 C1020.7,141.93332 1020.6,139.333346 1020.6,136.8 L1020.2,136.8 C1016.33331,143.066698 1011.76669,147.566653 1006.5,150.3 C1001.23331,153.033347 994.800038,154.4 987.2,154.4 C983.066646,154.4 979.066686,153.833339 975.2,152.7 C971.333314,151.566661 967.900015,149.833345 964.9,147.5 C961.899985,145.166655 959.500009,142.300017 957.7,138.9 C955.899991,135.499983 955,131.533356 955,127 C955,119.399962 956.966647,113.433355 960.9,109.1 C964.833353,104.766645 969.766637,101.533344 975.7,99.4 C981.633363,97.266656 987.966633,95.933336 994.7,95.4 C1001.43337,94.866664 1007.59997,94.6 1013.2,94.6 L1019.8,94.6 Z M1073.8,57.4 L1060.4,57.4 L1073.8,10.4 L1090,10.4 L1073.8,57.4 Z M1143,80.6 C1140.99999,76.733314 1138.33335,73.666678 1135,71.4 C1131.66665,69.133322 1127.60002,68 1122.8,68 C1120.53332,68 1118.23335,68.266664 1115.9,68.8 C1113.56666,69.333336 1111.46668,70.166661 1109.6,71.3 C1107.73332,72.433339 1106.23334,73.866658 1105.1,75.6 C1103.96666,77.333342 1103.4,79.466654 1103.4,82 C1103.4,86.400022 1104.93332,89.59999 1108,91.6 C1111.06668,93.60001 1115.66664,95.333326 1121.8,96.8 L1135.2,100 C1141.73337,101.466674 1147.16665,104.433311 1151.5,108.9 C1155.83336,113.366689 1158,118.9333 1158,125.6 C1158,130.666692 1156.96668,135.033315 1154.9,138.7 C1152.83332,142.366685 1150.10002,145.366655 1146.7,147.7 C1143.29998,150.033345 1139.40002,151.733328 1135,152.8 C1130.59998,153.866672 1126.13336,154.4 1121.6,154.4 C1114.39996,154.4 1107.70003,153.033347 1101.5,150.3 C1095.29997,147.566653 1090.00002,142.8667 1085.6,136.2 L1097,128.4 C1099.66668,132.666688 1103.03331,136.066654 1107.1,138.6 C1111.16669,141.133346 1115.99997,142.4 1121.6,142.4 C1124.26668,142.4 1126.93332,142.100003 1129.6,141.5 C1132.26668,140.899997 1134.63332,139.966673 1136.7,138.7 C1138.76668,137.433327 1140.43333,135.80001 1141.7,133.8 C1142.96667,131.79999 1143.6,129.46668 1143.6,126.8 C1143.6,122.13331 1141.86668,118.766677 1138.4,116.7 C1134.93332,114.633323 1130.73336,113.000006 1125.8,111.8 L1113,108.8 C1111.39999,108.399998 1109.23335,107.733338 1106.5,106.8 C1103.76665,105.866662 1101.10001,104.466676 1098.5,102.6 C1095.89999,100.733324 1093.66668,98.300015 1091.8,95.3 C1089.93332,92.299985 1089,88.600022 1089,84.2 C1089,79.399976 1089.96666,75.200018 1091.9,71.6 C1093.83334,67.999982 1096.43332,65.066678 1099.7,62.8 C1102.96668,60.533322 1106.66665,58.833339 1110.8,57.7 C1114.93335,56.566661 1119.19998,56 1123.6,56 C1130.13337,56 1136.19997,57.266654 1141.8,59.8 C1147.40003,62.333346 1151.73332,66.666636 1154.8,72.8 L1143,80.6 Z" id="Solent-Pizza’s" fill="#000000"></path>
            </g>
        </g>
    </g>
</svg>